<svg width="200" height="200" viewBox="0 0 200 200" fill="none" xmlns="http://www.w3.org/2000/svg">
<path d="M123.952 62.1664C106.846 69.1508 99.8589 25 99.8589 25C99.8589 25 75.9141 46.2901 65.0515 64.5C52.558 85.4439 39.6713 109.767 45.4022 134C51.7925 161.021 68.8531 175 99.8589 175C130.865 175 156 152.614 156 125C156 119.928 155.152 115.031 153.575 110.418C151.998 105.805 135.866 51.5563 135.866 51.5563C135.866 51.5563 129.934 59.7244 123.952 62.1664Z" fill="#ed7d2d"/>
<path d="M88.6307 123C100.694 129.7 99.2975 92 99.2975 92C99.2975 92 120.266 113.502 126.807 130.5C128.845 135.798 129.428 140.067 129.427 145.667C129.423 160.486 115.937 172.5 99.2975 172.5C82.6577 172.5 69.1685 160.486 69.1685 145.667C69.1685 142.944 70.47 137.841 70.47 137.841L80.771 108C80.771 108 81.7706 119.19 88.6307 123Z" fill="#FCE564"/>
</svg>
